# xmcd CD database file
#
# Track frame offsets:
#	150
#	17077
#	42042
#	66765
#	79200
#	99110
#	124690
#	144695
#	161405
#	180185
#	205172
#	221297
#
# Disc length: 3353 seconds
#
# Revision: 4
# Processed by: cddbd v1.5.2PL0 Copyright (c) Steve Scherf et al.
# Submitted via: CDex 1.51
#
DISCID=930d170c
DTITLE=Guitar Shorty - Get Wise To Yourself
DYEAR=1995
DGENRE=Blues
TTITLE0=I'm The Clean Up Man
TTITLE1=You Better Get Wise To Yourself
TTITLE2=I Don't Know Why
TTITLE3=You Don't Treat Me Right
TTITLE4=My Baby Loves To Do The Bump
TTITLE5=Hard To Stay Above The Ground
TTITLE6=You Left Me Dreaming
TTITLE7=She's Built, She's Built To Kill
TTITLE8=A Fool Who Wants To Stay
TTITLE9=The Blues Done Got Me
TTITLE10=Ways Of Man
TTITLE11=Smells Good
EXTD=YEAR: 1995
EXTT0=
EXTT1=
EXTT2=
EXTT3=
EXTT4=
EXTT5=
EXTT6=
EXTT7=
EXTT8=
EXTT9=
EXTT10=
EXTT11=
PLAYORDER=
